<?xml version="1.0" encoding="iso-8859-1"?>
<!-- Uploaded to: SVG Repo, www.svgrepo.com, Generator: SVG Repo Mixer Tools -->
<svg height="800px" width="800px" version="1.1" id="Layer_1" xmlns="http://www.w3.org/2000/svg" xmlns:xlink="http://www.w3.org/1999/xlink" 
	 viewBox="0 0 512 512" xml:space="preserve">
<g>
	<path style="fill:#CC66A1;" d="M512,141.241V0H370.759l51.897,51.897l-93.67,93.67c-20.93-13.868-46.001-21.981-72.986-21.981
		s-52.056,8.113-72.986,21.981l-93.67-93.67L141.241,0H0v141.241l51.897-51.897l93.67,93.67
		c-13.868,20.93-21.981,46.001-21.981,72.986s8.113,52.056,21.981,72.986l-93.67,93.67L0,370.759V512h141.241l-51.897-51.897
		l93.67-93.67c20.93,13.868,46.001,21.981,72.986,21.981s52.056-8.113,72.986-21.981l93.67,93.67L370.759,512H512V370.759
		l-51.897,51.897l-93.67-93.67c13.868-20.93,21.981-46.001,21.981-72.986s-8.113-52.056-21.981-72.986l93.67-93.67L512,141.241z"/>
	<path style="fill:#EB86C4;" d="M344.276,256c0-48.755-39.521-88.276-88.276-88.276S167.724,207.245,167.724,256
		s39.521,88.276,88.276,88.276S344.276,304.755,344.276,256"/>
</g>
</svg>